<svg width="32" height="32" viewBox="0 0 32 32" fill="none" xmlns="http://www.w3.org/2000/svg">
  <!-- Background -->
  <rect width="32" height="32" rx="8" fill="#2563eb"/>
  
  <!-- Open book -->
  <path d="M6 8c0-1.1.9-2 2-2h7c1.5 0 3 .5 4 1.5 1-1 2.5-1.5 4-1.5h7c1.1 0 2 .9 2 2v14c0 1.1-.9 2-2 2h-7c-1 0-2 .3-2.7.9-.4.3-.9.3-1.3 0C18.3 24.3 17.3 24 16.3 24H9c-1.1 0-2-.9-2-2V8z" fill="white"/>
  
  <!-- Book spine/center -->
  <path d="M16 7.5v16.5" stroke="#2563eb" stroke-width="1.5"/>
  
  <!-- Book pages lines -->
  <path d="M9 12h6M9 15h6M21 12h6M21 15h6" stroke="#2563eb" stroke-width="1" stroke-linecap="round"/>
  
  <!-- Small market/shop icon overlay -->
  <circle cx="24" cy="8" r="4" fill="#fbbf24"/>
  <path d="M22 6.5h4l-1 2h-2l-1-2z" fill="white"/>
  <rect x="22.5" y="8.5" width="3" height="2" fill="white" rx="0.5"/>
</svg>